# Blender v2.90.1 OBJ File: 'robots.blend'
# www.blender.org
mtllib robots.mtl
o Robot2_Cube.001
v -4.974813 1.528419 -3.929652
v -4.974813 -0.471581 -3.929652
v -5.552571 1.522242 -2.453336
v -5.552571 -0.477758 -2.453336
v -6.974813 1.528419 -3.929652
v -6.974813 -0.471581 -3.929652
v -6.397055 1.522242 -2.453336
v -6.397055 -0.477758 -2.453336
v -5.578417 3.724193 -2.533257
v -6.371209 3.724193 -2.533257
v -5.578417 3.724193 -3.326048
v -6.371209 3.724193 -3.326048
v -5.267033 5.187851 -2.221872
v -6.682593 5.187851 -2.221872
v -5.336077 4.912127 -3.742527
v -6.613549 4.912127 -3.742527
v -5.267033 6.276272 -2.221872
v -6.682593 6.276272 -2.221872
v -5.336077 6.000547 -3.742527
v -6.613549 6.000547 -3.742527
v -5.611206 6.567654 -2.566046
v -6.338420 6.567654 -2.566046
v -5.611206 6.567654 -3.293259
v -6.338420 6.567654 -3.293259
v -5.611206 6.757383 -2.566046
v -6.338420 6.757383 -2.566046
v -5.611206 6.757383 -3.293259
v -6.338420 6.757383 -3.293259
v -5.447068 6.966356 -2.401907
v -6.502558 6.966356 -2.401907
v -5.447068 6.966356 -3.457397
v -6.502558 6.966356 -3.457397
v -5.392841 7.748478 -2.347680
v -6.556785 7.748478 -2.347680
v -5.392841 7.748478 -3.511624
v -6.556785 7.748478 -3.511624
v -5.793612 7.879449 -2.782924
v -6.156014 7.879449 -2.782924
v -5.793612 7.879449 -3.354425
v -6.156014 7.879449 -3.354425
v -4.993895 5.419477 -3.336189
v -4.993895 5.419477 -2.523116
v -4.993895 6.044646 -3.336189
v -4.993895 6.044646 -2.523116
v -6.955731 5.419477 -2.523116
v -6.955731 5.419477 -3.336189
v -6.955731 6.044646 -2.523116
v -6.955731 6.044646 -3.336189
v -7.255732 5.419477 -2.523116
v -7.255732 5.419477 -3.336189
v -7.255732 6.044646 -2.523116
v -7.255732 6.044646 -3.336189
v -4.693894 5.419477 -3.336189
v -4.693894 5.419477 -2.523116
v -4.693894 6.044646 -3.336189
v -4.693894 6.044646 -2.523116
v -4.934926 4.534069 -3.176369
v -4.934926 4.534069 -2.682935
v -7.014700 4.534069 -2.682935
v -7.014700 4.534069 -3.176369
v -7.196763 4.534069 -2.682935
v -7.196763 4.534069 -3.176369
v -4.752863 4.534069 -3.176369
v -4.752863 4.534069 -2.682935
v -4.993895 4.066325 -3.336189
v -4.993895 3.884661 -2.523116
v -6.955731 3.884661 -2.523116
v -6.955731 4.066325 -3.336189
v -7.255732 3.884661 -2.523116
v -7.255732 4.066325 -3.336189
v -4.693894 4.066325 -3.336189
v -4.693894 3.884661 -2.523116
v -4.993895 2.871270 -3.725368
v -4.993895 2.871270 -3.411393
v -6.955731 2.871270 -3.411393
v -6.955731 2.871270 -3.725368
v -7.255732 2.871270 -3.411393
v -7.255732 2.871270 -3.725368
v -4.693894 2.871270 -3.725368
v -4.693894 2.871270 -3.411393
v -4.993895 2.604250 -3.975916
v -4.993895 2.449593 -3.702674
v -6.955731 2.449593 -3.702674
v -6.955731 2.604250 -3.975916
v -7.255732 2.449593 -3.702674
v -7.255732 2.604250 -3.975916
v -4.693894 2.604250 -3.975916
v -4.693894 2.449593 -3.702674
v -4.918895 2.396560 -4.003275
v -4.918895 2.319232 -3.866654
v -7.030731 2.319232 -3.866654
v -7.030731 2.396560 -4.003275
v -7.180731 2.319232 -3.866654
v -7.180731 2.396560 -4.003275
v -4.768895 2.396560 -4.003275
v -4.768895 2.319232 -3.866654
vt 0.625000 0.500000
vt 0.625000 0.250000
vt 0.625000 0.250000
vt 0.625000 0.500000
vt 0.375000 0.750000
vt 0.625000 0.750000
vt 0.625000 1.000000
vt 0.375000 1.000000
vt 0.375000 0.000000
vt 0.625000 0.000000
vt 0.375000 0.250000
vt 0.125000 0.500000
vt 0.375000 0.500000
vt 0.125000 0.750000
vt 0.625000 0.750000
vt 0.625000 1.000000
vt 0.625000 0.000000
vt 0.625000 0.500000
vt 0.625000 0.250000
vt 0.625000 0.250000
vt 0.625000 0.500000
vt 0.625000 0.000000
vt 0.625000 0.000000
vt 0.625000 0.250000
vt 0.625000 0.750000
vt 0.625000 0.750000
vt 0.625000 0.750000
vt 0.625000 0.750000
vt 0.625000 0.250000
vt 0.625000 0.250000
vt 0.625000 1.000000
vt 0.625000 1.000000
vt 0.625000 1.000000
vt 0.625000 0.750000
vt 0.625000 0.750000
vt 0.625000 1.000000
vt 0.625000 0.500000
vt 0.625000 0.500000
vt 0.625000 0.250000
vt 0.625000 0.250000
vt 0.625000 0.500000
vt 0.625000 0.000000
vt 0.625000 0.750000
vt 0.625000 0.000000
vt 0.625000 1.000000
vt 0.625000 0.500000
vt 0.625000 0.250000
vt 0.625000 0.250000
vt 0.625000 0.500000
vt 0.625000 0.750000
vt 0.625000 1.000000
vt 0.875000 0.500000
vt 0.875000 0.750000
vt 0.625000 0.750000
vt 0.625000 0.000000
vt 0.625000 0.000000
vt 0.625000 1.000000
vt 0.625000 0.500000
vt 0.625000 0.500000
vt 0.625000 0.500000
vt 0.625000 0.500000
vt 0.625000 1.000000
vt 0.625000 1.000000
vt 0.625000 1.000000
vt 0.625000 1.000000
vt 0.625000 0.000000
vt 0.625000 0.000000
vt 0.625000 0.000000
vt 0.625000 0.250000
vt 0.625000 0.000000
vt 0.625000 0.000000
vt 0.625000 0.250000
vt 0.625000 0.500000
vt 0.625000 0.750000
vt 0.625000 0.750000
vt 0.625000 0.750000
vt 0.625000 0.750000
vt 0.625000 0.500000
vt 0.625000 1.000000
vt 0.625000 1.000000
vt 0.625000 1.000000
vt 0.625000 1.000000
vt 0.625000 0.750000
vt 0.625000 0.500000
vt 0.625000 0.250000
vt 0.625000 0.000000
vt 0.625000 0.250000
vt 0.625000 0.000000
vt 0.625000 0.750000
vt 0.625000 0.750000
vt 0.625000 0.750000
vt 0.625000 0.500000
vt 0.625000 0.500000
vt 0.625000 0.000000
vt 0.625000 0.250000
vt 0.625000 0.250000
vt 0.625000 0.000000
vt 0.625000 0.250000
vt 0.625000 0.250000
vt 0.625000 0.250000
vt 0.625000 0.250000
vt 0.625000 0.500000
vt 0.625000 0.500000
vt 0.625000 0.500000
vt 0.625000 1.000000
vt 0.625000 1.000000
vt 0.625000 0.000000
vt 0.625000 0.000000
vt 0.625000 0.500000
vt 0.625000 0.500000
vt 0.625000 0.000000
vt 0.625000 0.000000
vt 0.625000 0.250000
vt 0.625000 0.000000
vt 0.625000 0.750000
vt 0.625000 0.750000
vt 0.625000 1.000000
vt 0.625000 1.000000
vt 0.625000 0.000000
vt 0.625000 0.250000
vt 0.625000 0.750000
vt 0.625000 0.750000
vt 0.625000 1.000000
vt 0.625000 1.000000
vn 0.0000 0.2651 -0.9642
vn 0.0000 0.0000 1.0000
vn -0.9312 0.0000 0.3644
vn 0.0000 -1.0000 -0.0042
vn 0.9312 0.0000 0.3644
vn 0.0000 0.0000 -1.0000
vn 0.0000 0.0363 0.9993
vn -0.9633 0.1086 0.2456
vn 0.9633 0.1086 0.2456
vn -0.8015 0.5901 -0.0970
vn 0.7408 0.0000 0.6717
vn -0.7649 0.0000 -0.6441
vn 0.0000 0.7632 0.6461
vn 0.0000 0.6210 -0.7838
vn 0.8015 0.5901 -0.0970
vn 0.0000 -0.6177 -0.7864
vn 1.0000 0.0000 0.0000
vn -1.0000 0.0000 0.0000
vn 0.7864 -0.6177 0.0000
vn -0.7864 -0.6177 0.0000
vn 0.0000 -0.6177 0.7864
vn 0.0000 0.7683 -0.6401
vn 0.0000 -0.0692 0.9976
vn 0.0000 1.0000 0.0000
vn 0.3106 0.9505 0.0000
vn -0.3106 0.9505 0.0000
vn 0.0000 0.9576 0.2882
vn 0.7636 -0.6434 0.0534
vn 0.7649 0.0000 -0.6441
vn 0.3082 0.9436 -0.1206
vn -0.3082 0.9436 -0.1206
vn -0.7408 0.0000 0.6717
vn -0.7636 -0.6434 0.0534
vn -0.9978 -0.0665 0.0000
vn 0.9978 -0.0665 0.0000
vn 0.0000 0.2390 0.9710
vn 0.9944 0.1050 0.0146
vn 0.0000 -0.1776 -0.9841
vn 0.0000 -0.1776 0.9841
vn 0.0000 -0.6592 0.7520
vn 0.0000 0.3233 -0.9463
vn -0.9944 0.1050 0.0146
vn 0.0000 0.6843 -0.7292
vn 0.0000 0.3097 -0.9509
vn 0.0000 0.1306 -0.9914
vn 0.9329 -0.3135 -0.1774
vn 0.0000 -0.5684 0.8228
vn 0.0000 -0.8703 -0.4926
vn -0.9329 -0.3135 -0.1774
vn 0.0000 -0.7828 0.6223
vn -0.9976 -0.0692 0.0000
vn 0.0000 -0.0692 -0.9976
vn 0.9976 -0.0692 0.0000
vn -0.9788 -0.2046 -0.0048
vn 0.0000 -0.2081 0.9781
vn 0.0000 -0.3308 -0.9437
vn 0.9788 -0.2046 -0.0048
usemtl Material.005
s off
f 1/1/1 5/2/1 12/3/1 11/4/1
f 4/5/2 3/6/2 7/7/2 8/8/2
f 8/9/3 7/10/3 5/2/3 6/11/3
f 6/12/4 2/13/4 4/5/4 8/14/4
f 2/13/5 1/1/5 3/6/5 4/5/5
f 6/11/6 5/2/6 1/1/6 2/13/6
f 7/7/7 3/6/7 9/15/7 10/16/7
f 5/2/8 7/10/8 10/17/8 12/3/8
f 3/6/9 1/1/9 11/4/9 9/15/9
f 15/18/6 16/19/6 20/20/6 19/21/6
f 20/20/10 18/22/10 22/23/10 24/24/10
f 17/25/11 13/26/11 42/27/11 44/28/11
f 20/20/12 16/19/12 46/29/12 48/30/12
f 14/31/2 13/26/2 17/25/2 18/32/2
f 22/33/2 21/34/2 25/35/2 26/36/2
f 18/32/13 17/25/13 21/34/13 22/33/13
f 19/21/14 20/20/14 24/24/14 23/37/14
f 17/25/15 19/21/15 23/37/15 21/34/15
f 27/38/16 28/39/16 32/40/16 31/41/16
f 23/37/6 24/24/6 28/39/6 27/38/6
f 21/34/17 23/37/17 27/38/17 25/35/17
f 24/24/18 22/23/18 26/42/18 28/39/18
f 25/35/19 27/38/19 31/41/19 29/43/19
f 28/39/20 26/42/20 30/44/20 32/40/20
f 26/36/21 25/35/21 29/43/21 30/45/21
f 35/46/22 36/47/22 40/48/22 39/49/22
f 30/45/23 29/43/23 33/50/23 34/51/23
f 39/49/24 40/52/24 38/53/24 37/54/24
f 33/50/25 35/46/25 39/49/25 37/54/25
f 36/47/26 34/55/26 38/56/26 40/48/26
f 34/51/27 33/50/27 37/54/27 38/57/27
f 41/58/6 43/59/6 55/60/6 53/61/6
f 13/26/28 15/18/28 41/58/28 42/27/28
f 15/18/29 19/21/29 43/59/29 41/58/29
f 19/21/30 17/25/30 44/28/30 43/59/30
f 45/62/2 47/63/2 51/64/2 49/65/2
f 18/22/31 20/20/31 48/30/31 47/66/31
f 14/31/32 18/32/32 47/63/32 45/62/32
f 16/19/33 14/67/33 45/68/33 46/29/33
f 50/69/18 49/70/18 51/71/18 52/72/18
f 47/66/24 48/30/24 52/72/24 51/71/24
f 48/30/6 46/29/6 50/69/6 52/72/6
f 42/27/34 41/58/34 57/73/34 58/74/34
f 54/75/17 53/61/17 55/60/17 56/76/17
f 53/61/35 54/75/35 64/77/35 63/78/35
f 44/28/2 42/27/2 54/75/2 56/76/2
f 43/59/24 44/28/24 56/76/24 55/60/24
f 59/79/36 61/80/36 69/81/36 67/82/36
f 63/78/37 64/77/37 72/83/37 71/84/37
f 41/58/38 53/61/38 63/78/38 57/73/38
f 49/70/34 50/69/34 62/85/34 61/86/34
f 50/69/38 46/29/38 60/87/38 62/85/38
f 45/62/39 49/65/39 61/80/39 59/79/39
f 54/75/39 42/27/39 58/74/39 64/77/39
f 46/29/35 45/68/35 59/88/35 60/87/35
f 72/83/40 66/89/40 74/90/40 80/91/40
f 66/89/18 65/92/18 73/93/18 74/90/18
f 60/87/37 59/88/37 67/94/37 68/95/37
f 57/73/41 63/78/41 71/84/41 65/92/41
f 62/85/41 60/87/41 68/95/41 70/96/41
f 61/86/42 62/85/42 70/96/42 69/97/42
f 58/74/42 57/73/42 65/92/42 66/89/42
f 64/77/36 58/74/36 66/89/36 72/83/36
f 78/98/43 76/99/43 84/100/43 86/101/43
f 73/93/43 79/102/43 87/103/43 81/104/43
f 71/84/17 72/83/17 80/91/17 79/102/17
f 67/82/40 69/81/40 77/105/40 75/106/40
f 68/95/17 67/94/17 75/107/17 76/99/17
f 65/92/44 71/84/44 79/102/44 73/93/44
f 70/96/44 68/95/44 76/99/44 78/98/44
f 69/97/18 70/96/18 78/98/18 77/108/18
f 81/104/45 87/103/45 95/109/45 89/110/45
f 84/100/46 83/111/46 91/112/46 92/113/46
f 77/108/18 78/98/18 86/101/18 85/114/18
f 74/90/18 73/93/18 81/104/18 82/115/18
f 80/91/47 74/90/47 82/115/47 88/116/47
f 79/102/17 80/91/17 88/116/17 87/103/17
f 75/106/47 77/105/47 85/117/47 83/118/47
f 76/99/17 75/107/17 83/111/17 84/100/17
f 92/113/48 91/112/48 93/119/48 94/120/48
f 90/121/48 89/110/48 95/109/48 96/122/48
f 86/101/45 84/100/45 92/113/45 94/120/45
f 85/114/49 86/101/49 94/120/49 93/119/49
f 82/115/49 81/104/49 89/110/49 90/121/49
f 88/116/50 82/115/50 90/121/50 96/122/50
f 87/103/46 88/116/46 96/122/46 95/109/46
f 83/118/50 85/117/50 93/123/50 91/124/50
usemtl Material.004
f 32/40/51 30/44/51 34/55/51 36/47/51
f 31/41/52 32/40/52 36/47/52 35/46/52
f 29/43/53 31/41/53 35/46/53 33/50/53
usemtl Material.003
f 12/3/54 10/17/54 14/67/54 16/19/54
f 10/16/55 9/15/55 13/26/55 14/31/55
f 11/4/56 12/3/56 16/19/56 15/18/56
f 9/15/57 11/4/57 15/18/57 13/26/57
o Robot1_Cube
v -0.358189 0.789873 -1.750788
v -0.358189 -1.210127 -1.750788
v -0.358189 0.789873 0.249211
v -0.358189 -1.210127 0.249211
v -2.358189 0.789873 -1.750788
v -2.358189 -1.210127 -1.750788
v -2.358189 0.789873 0.249211
v -2.358189 -1.210127 0.249211
v -0.961794 2.985648 -0.354393
v -1.754585 2.985648 -0.354393
v -0.961794 2.985648 -1.147184
v -1.754585 2.985648 -1.147184
v -0.650409 4.449306 -0.043008
v -2.065969 4.449306 -0.043008
v -0.650409 4.449306 -1.458569
v -2.065969 4.449306 -1.458569
v -0.650409 5.537726 -0.043008
v -2.065969 5.537726 -0.043008
v -0.650409 5.537726 -1.458569
v -2.065969 5.537726 -1.458569
v -0.994583 5.829108 -0.387182
v -1.721796 5.829108 -0.387182
v -0.994583 5.829108 -1.114395
v -1.721796 5.829108 -1.114395
v -0.994583 6.018837 -0.387182
v -1.721796 6.018837 -0.387182
v -0.994583 6.018837 -1.114395
v -1.721796 6.018837 -1.114395
v -0.830444 6.227810 -0.223044
v -1.885934 6.227810 -0.223044
v -0.830444 6.227810 -1.278533
v -1.885934 6.227810 -1.278533
v -0.776217 7.009932 -0.168817
v -1.940161 7.009932 -0.168817
v -0.776217 7.009932 -1.332761
v -1.940161 7.009932 -1.332761
v -1.072439 7.439023 -0.465038
v -1.643940 7.439023 -0.465038
v -1.072439 7.439023 -1.036539
v -1.643940 7.439023 -1.036539
v -0.377271 4.680931 -1.157325
v -0.377271 4.680931 -0.344252
v -0.377271 5.306100 -1.157325
v -0.377271 5.306100 -0.344252
v -2.339108 4.680931 -0.344252
v -2.339108 4.680931 -1.157325
v -2.339108 5.306100 -0.344252
v -2.339108 5.306100 -1.157325
v -2.639108 4.680931 -0.344252
v -2.639108 4.680931 -1.157325
v -2.639108 5.306100 -0.344252
v -2.639108 5.306100 -1.157325
v -0.077271 4.680931 -1.157325
v -0.077271 4.680931 -0.344252
v -0.077271 5.306100 -1.157325
v -0.077271 5.306100 -0.344252
v -0.318302 3.795523 -0.997505
v -0.318302 3.795523 -0.504072
v -2.398076 3.795523 -0.504072
v -2.398076 3.795523 -0.997505
v -2.580139 3.795523 -0.504072
v -2.580139 3.795523 -0.997505
v -0.136240 3.795523 -0.997505
v -0.136240 3.795523 -0.504072
v -0.377271 3.327779 -1.157325
v -0.377271 3.146116 -0.344252
v -2.339108 3.146116 -0.344252
v -2.339108 3.327779 -1.157325
v -2.639108 3.146116 -0.344252
v -2.639108 3.327779 -1.157325
v -0.077271 3.327779 -1.157325
v -0.077271 3.146116 -0.344252
v -0.377271 2.132725 -1.546504
v -0.377271 2.132725 -1.232529
v -2.339108 2.132725 -1.232529
v -2.339108 2.132725 -1.546504
v -2.639108 2.132725 -1.232529
v -2.639108 2.132725 -1.546504
v -0.077271 2.132725 -1.546504
v -0.077271 2.132725 -1.232529
v -0.377271 1.865704 -1.797052
v -0.377271 1.711047 -1.523810
v -2.339108 1.711047 -1.523810
v -2.339108 1.865704 -1.797052
v -2.639108 1.711047 -1.523810
v -2.639108 1.865704 -1.797052
v -0.077271 1.865704 -1.797052
v -0.077271 1.711047 -1.523810
v -0.302271 1.658014 -1.824411
v -0.302271 1.580686 -1.687790
v -2.414107 1.580686 -1.687790
v -2.414107 1.658014 -1.824411
v -2.564107 1.580686 -1.687790
v -2.564107 1.658014 -1.824411
v -0.152271 1.658014 -1.824411
v -0.152271 1.580686 -1.687790
vt 0.625000 0.500000
vt 0.625000 0.250000
vt 0.625000 0.250000
vt 0.625000 0.500000
vt 0.375000 0.750000
vt 0.625000 0.750000
vt 0.625000 1.000000
vt 0.375000 1.000000
vt 0.375000 0.000000
vt 0.625000 0.000000
vt 0.375000 0.250000
vt 0.125000 0.500000
vt 0.375000 0.500000
vt 0.125000 0.750000
vt 0.625000 0.750000
vt 0.625000 1.000000
vt 0.625000 0.000000
vt 0.625000 0.500000
vt 0.625000 0.250000
vt 0.625000 0.250000
vt 0.625000 0.500000
vt 0.625000 0.000000
vt 0.625000 0.000000
vt 0.625000 0.250000
vt 0.625000 0.750000
vt 0.625000 0.750000
vt 0.625000 0.750000
vt 0.625000 0.750000
vt 0.625000 0.250000
vt 0.625000 0.250000
vt 0.625000 1.000000
vt 0.625000 1.000000
vt 0.625000 1.000000
vt 0.625000 0.750000
vt 0.625000 0.750000
vt 0.625000 1.000000
vt 0.625000 0.500000
vt 0.625000 0.500000
vt 0.625000 0.250000
vt 0.625000 0.250000
vt 0.625000 0.500000
vt 0.625000 0.000000
vt 0.625000 0.750000
vt 0.625000 0.000000
vt 0.625000 1.000000
vt 0.625000 0.500000
vt 0.625000 0.250000
vt 0.625000 0.250000
vt 0.625000 0.500000
vt 0.625000 0.750000
vt 0.625000 1.000000
vt 0.875000 0.500000
vt 0.875000 0.750000
vt 0.625000 0.750000
vt 0.625000 0.000000
vt 0.625000 0.000000
vt 0.625000 1.000000
vt 0.625000 0.500000
vt 0.625000 0.500000
vt 0.625000 0.500000
vt 0.625000 0.500000
vt 0.625000 1.000000
vt 0.625000 1.000000
vt 0.625000 1.000000
vt 0.625000 1.000000
vt 0.625000 0.000000
vt 0.625000 0.000000
vt 0.625000 0.000000
vt 0.625000 0.250000
vt 0.625000 0.000000
vt 0.625000 0.000000
vt 0.625000 0.250000
vt 0.625000 0.500000
vt 0.625000 0.750000
vt 0.625000 0.750000
vt 0.625000 0.750000
vt 0.625000 0.750000
vt 0.625000 0.500000
vt 0.625000 1.000000
vt 0.625000 1.000000
vt 0.625000 1.000000
vt 0.625000 1.000000
vt 0.625000 0.750000
vt 0.625000 0.500000
vt 0.625000 0.250000
vt 0.625000 0.000000
vt 0.625000 0.250000
vt 0.625000 0.000000
vt 0.625000 0.750000
vt 0.625000 0.750000
vt 0.625000 0.750000
vt 0.625000 0.500000
vt 0.625000 0.500000
vt 0.625000 0.000000
vt 0.625000 0.250000
vt 0.625000 0.250000
vt 0.625000 0.000000
vt 0.625000 0.250000
vt 0.625000 0.250000
vt 0.625000 0.250000
vt 0.625000 0.250000
vt 0.625000 0.500000
vt 0.625000 0.500000
vt 0.625000 0.500000
vt 0.625000 1.000000
vt 0.625000 1.000000
vt 0.625000 0.000000
vt 0.625000 0.000000
vt 0.625000 0.500000
vt 0.625000 0.500000
vt 0.625000 0.000000
vt 0.625000 0.000000
vt 0.625000 0.250000
vt 0.625000 0.000000
vt 0.625000 0.750000
vt 0.625000 0.750000
vt 0.625000 1.000000
vt 0.625000 1.000000
vt 0.625000 0.000000
vt 0.625000 0.250000
vt 0.625000 0.750000
vt 0.625000 0.750000
vt 0.625000 1.000000
vt 0.625000 1.000000
vn 0.0000 0.2651 -0.9642
vn 0.0000 0.0000 1.0000
vn -1.0000 0.0000 0.0000
vn 0.0000 -1.0000 0.0000
vn 1.0000 0.0000 0.0000
vn 0.0000 0.0000 -1.0000
vn 0.0000 0.2651 0.9642
vn -0.9642 0.2651 0.0000
vn 0.9642 0.2651 0.0000
vn -0.6461 0.7632 0.0000
vn 0.7408 0.0000 0.6717
vn -0.7408 0.0000 -0.6717
vn 0.0000 0.7632 0.6461
vn 0.0000 0.7632 -0.6461
vn 0.6461 0.7632 0.0000
vn 0.0000 -0.6177 -0.7864
vn 0.7864 -0.6177 0.0000
vn -0.7864 -0.6177 0.0000
vn 0.0000 -0.6177 0.7864
vn 0.0000 0.5681 -0.8229
vn 0.0000 -0.0692 0.9976
vn 0.0000 1.0000 0.0000
vn 0.8229 0.5681 0.0000
vn -0.8229 0.5681 0.0000
vn 0.0000 0.5681 0.8229
vn 0.6468 -0.7627 0.0000
vn 0.7408 0.0000 -0.6717
vn 0.6468 0.7627 0.0000
vn -0.6468 0.7627 0.0000
vn -0.7408 0.0000 0.6717
vn -0.6468 -0.7627 0.0000
vn -0.9978 -0.0665 0.0000
vn 0.9978 -0.0665 0.0000
vn 0.0000 0.2390 0.9710
vn 0.9944 0.1050 0.0146
vn 0.0000 -0.1776 -0.9841
vn 0.0000 -0.1776 0.9841
vn 0.0000 -0.6592 0.7520
vn 0.0000 0.3233 -0.9463
vn -0.9944 0.1050 0.0146
vn 0.0000 0.6843 -0.7292
vn 0.0000 0.3097 -0.9508
vn 0.0000 0.1306 -0.9914
vn 0.9329 -0.3135 -0.1774
vn 0.0000 -0.5684 0.8228
vn 0.0000 -0.8703 -0.4926
vn -0.9329 -0.3135 -0.1774
vn 0.0000 -0.7828 0.6223
vn -0.9976 -0.0692 0.0000
vn 0.0000 -0.0692 -0.9976
vn 0.9976 -0.0692 0.0000
vn -0.9781 -0.2081 0.0000
vn 0.0000 -0.2081 0.9781
vn 0.0000 -0.2081 -0.9781
vn 0.9781 -0.2081 0.0000
usemtl Material
s off
f 97/125/58 101/126/58 108/127/58 107/128/58
f 100/129/59 99/130/59 103/131/59 104/132/59
f 104/133/60 103/134/60 101/126/60 102/135/60
f 102/136/61 98/137/61 100/129/61 104/138/61
f 98/137/62 97/125/62 99/130/62 100/129/62
f 102/135/63 101/126/63 97/125/63 98/137/63
f 103/131/64 99/130/64 105/139/64 106/140/64
f 101/126/65 103/134/65 106/141/65 108/127/65
f 99/130/66 97/125/66 107/128/66 105/139/66
f 111/142/63 112/143/63 116/144/63 115/145/63
f 116/144/67 114/146/67 118/147/67 120/148/67
f 113/149/68 109/150/68 138/151/68 140/152/68
f 116/144/69 112/143/69 142/153/69 144/154/69
f 110/155/59 109/150/59 113/149/59 114/156/59
f 118/157/59 117/158/59 121/159/59 122/160/59
f 114/156/70 113/149/70 117/158/70 118/157/70
f 115/145/71 116/144/71 120/148/71 119/161/71
f 113/149/72 115/145/72 119/161/72 117/158/72
f 123/162/73 124/163/73 128/164/73 127/165/73
f 119/161/63 120/148/63 124/163/63 123/162/63
f 117/158/62 119/161/62 123/162/62 121/159/62
f 120/148/60 118/147/60 122/166/60 124/163/60
f 121/159/74 123/162/74 127/165/74 125/167/74
f 124/163/75 122/166/75 126/168/75 128/164/75
f 122/160/76 121/159/76 125/167/76 126/169/76
f 131/170/77 132/171/77 136/172/77 135/173/77
f 126/169/78 125/167/78 129/174/78 130/175/78
f 135/173/79 136/176/79 134/177/79 133/178/79
f 129/174/80 131/170/80 135/173/80 133/178/80
f 132/171/81 130/179/81 134/180/81 136/172/81
f 130/175/82 129/174/82 133/178/82 134/181/82
f 137/182/63 139/183/63 151/184/63 149/185/63
f 109/150/83 111/142/83 137/182/83 138/151/83
f 111/142/84 115/145/84 139/183/84 137/182/84
f 115/145/85 113/149/85 140/152/85 139/183/85
f 141/186/59 143/187/59 147/188/59 145/189/59
f 114/146/86 116/144/86 144/154/86 143/190/86
f 110/155/87 114/156/87 143/187/87 141/186/87
f 112/143/88 110/191/88 141/192/88 142/153/88
f 146/193/60 145/194/60 147/195/60 148/196/60
f 143/190/79 144/154/79 148/196/79 147/195/79
f 144/154/63 142/153/63 146/193/63 148/196/63
f 138/151/89 137/182/89 153/197/89 154/198/89
f 150/199/62 149/185/62 151/184/62 152/200/62
f 149/185/90 150/199/90 160/201/90 159/202/90
f 140/152/59 138/151/59 150/199/59 152/200/59
f 139/183/79 140/152/79 152/200/79 151/184/79
f 155/203/91 157/204/91 165/205/91 163/206/91
f 159/202/92 160/201/92 168/207/92 167/208/92
f 137/182/93 149/185/93 159/202/93 153/197/93
f 145/194/89 146/193/89 158/209/89 157/210/89
f 146/193/93 142/153/93 156/211/93 158/209/93
f 141/186/94 145/189/94 157/204/94 155/203/94
f 150/199/94 138/151/94 154/198/94 160/201/94
f 142/153/90 141/192/90 155/212/90 156/211/90
f 168/207/95 162/213/95 170/214/95 176/215/95
f 162/213/60 161/216/60 169/217/60 170/214/60
f 156/211/92 155/212/92 163/218/92 164/219/92
f 153/197/96 159/202/96 167/208/96 161/216/96
f 158/209/96 156/211/96 164/219/96 166/220/96
f 157/210/97 158/209/97 166/220/97 165/221/97
f 154/198/97 153/197/97 161/216/97 162/213/97
f 160/201/91 154/198/91 162/213/91 168/207/91
f 174/222/98 172/223/98 180/224/98 182/225/98
f 169/217/98 175/226/98 183/227/98 177/228/98
f 167/208/62 168/207/62 176/215/62 175/226/62
f 163/206/95 165/205/95 173/229/95 171/230/95
f 164/219/62 163/218/62 171/231/62 172/223/62
f 161/216/99 167/208/99 175/226/99 169/217/99
f 166/220/99 164/219/99 172/223/99 174/222/99
f 165/221/60 166/220/60 174/222/60 173/232/60
f 177/228/100 183/227/100 191/233/100 185/234/100
f 180/224/101 179/235/101 187/236/101 188/237/101
f 173/232/60 174/222/60 182/225/60 181/238/60
f 170/214/60 169/217/60 177/228/60 178/239/60
f 176/215/102 170/214/102 178/239/102 184/240/102
f 175/226/62 176/215/62 184/240/62 183/227/62
f 171/230/102 173/229/102 181/241/102 179/242/102
f 172/223/62 171/231/62 179/235/62 180/224/62
f 188/237/103 187/236/103 189/243/103 190/244/103
f 186/245/103 185/234/103 191/233/103 192/246/103
f 182/225/100 180/224/100 188/237/100 190/244/100
f 181/238/104 182/225/104 190/244/104 189/243/104
f 178/239/104 177/228/104 185/234/104 186/245/104
f 184/240/105 178/239/105 186/245/105 192/246/105
f 183/227/101 184/240/101 192/246/101 191/233/101
f 179/242/105 181/241/105 189/247/105 187/248/105
usemtl Material.001
f 128/164/106 126/168/106 130/179/106 132/171/106
f 127/165/107 128/164/107 132/171/107 131/170/107
f 125/167/108 127/165/108 131/170/108 129/174/108
usemtl Material.002
f 108/127/109 106/141/109 110/191/109 112/143/109
f 106/140/110 105/139/110 109/150/110 110/155/110
f 107/128/111 108/127/111 112/143/111 111/142/111
f 105/139/112 107/128/112 111/142/112 109/150/112
